<?xml version="1.0" standalone="no"?>
<!DOCTYPE svg PUBLIC "-//W3C//DTD SVG 20010904//EN"
 "http://www.w3.org/TR/2001/REC-SVG-20010904/DTD/svg10.dtd">
<svg version="1.0" xmlns="http://www.w3.org/2000/svg"
 width="1500.000000pt" height="1500.000000pt" viewBox="0 0 1500.000000 1500.000000"
 preserveAspectRatio="xMidYMid meet">
<metadata>
Created by potrace 1.11, written by Peter Selinger 2001-2013
</metadata>
<g transform="translate(0.000000,1500.000000) scale(0.100000,-0.100000)"
fill="#000000" stroke="none">
<path d="M0 7500 l0 -7500 7500 0 7500 0 0 7500 0 7500 -7500 0 -7500 0 0
-7500z m5125 2379 c110 -11 337 -33 505 -50 655 -63 927 -90 1225 -119 327
-33 737 -72 1195 -114 151 -14 334 -33 405 -41 72 -8 236 -24 365 -35 129 -12
242 -23 250 -25 8 -2 146 -16 305 -30 160 -14 297 -28 305 -30 8 -2 123 -13
255 -25 132 -11 272 -25 310 -30 39 -6 192 -22 340 -35 149 -14 407 -39 575
-55 168 -17 442 -44 610 -60 268 -26 700 -69 708 -70 13 -1 -10 -45 -70 -134
-110 -158 -180 -263 -394 -586 -107 -162 -201 -300 -208 -305 -15 -11 -92 -8
-426 20 -102 8 -288 22 -415 30 -126 8 -279 19 -340 25 -97 9 -827 60 -859 60
-9 0 -15 -68 -23 -267 -5 -148 -9 -270 -7 -272 1 -1 135 -11 296 -22 281 -17
457 -28 1408 -84 234 -13 486 -29 560 -35 75 -5 160 -10 189 -10 64 0 65 -7 2
-95 -78 -110 -481 -724 -481 -734 0 -5 -3 -11 -7 -13 -5 -1 -30 -38 -58 -80
l-50 -77 -60 -1 c-33 0 -229 7 -435 15 -514 21 -1404 53 -1407 51 -4 -4 -41
-853 -53 -1221 -6 -181 -13 -336 -15 -342 -6 -18 -1125 -19 -1125 -1 0 6 24
37 53 67 260 279 398 615 461 1116 11 95 12 310 1 385 -3 19 -5 42 -6 50 -1 8
-5 31 -10 50 -4 19 -11 55 -14 80 -8 71 -65 280 -92 340 -57 127 -77 167 -91
183 -8 9 -12 17 -8 17 6 0 -35 65 -91 144 -16 21 -35 48 -43 61 -8 12 -22 33
-32 46 -15 22 -15 49 -2 359 8 184 12 345 9 358 -4 16 -13 22 -33 22 -15 0
-115 7 -222 15 -107 9 -348 27 -535 40 -187 14 -522 38 -745 54 -223 17 -535
39 -695 51 -159 11 -378 27 -485 35 -537 42 -913 67 -990 67 -106 0 -210 -24
-265 -62 -44 -30 -85 -104 -85 -154 0 -14 -5 -28 -11 -32 -17 -10 -3 -132 22
-199 11 -30 35 -69 52 -86 46 -47 157 -93 247 -104 8 -1 26 -5 40 -8 14 -4
140 -14 280 -22 140 -8 480 -28 755 -45 1527 -90 1491 -88 1660 -123 39 -8 79
-17 90 -21 11 -3 47 -12 80 -20 55 -14 208 -74 245 -96 8 -5 33 -19 54 -30
122 -66 271 -201 348 -316 96 -143 161 -337 174 -524 3 -41 6 -79 8 -85 7 -23
-13 -406 -22 -437 -6 -18 -18 -71 -27 -118 -29 -152 -87 -303 -174 -455 -32
-56 -154 -197 -199 -231 -20 -16 -41 -34 -47 -40 -18 -22 -148 -105 -219 -141
-108 -54 -264 -109 -389 -137 -242 -54 -294 -56 -1433 -56 -578 0 -1523 3
-2100 7 l-1049 6 27 31 c33 38 183 235 415 546 97 129 197 262 222 295 25 33
94 124 153 203 59 78 108 151 108 163 0 20 4 20 98 15 53 -4 363 -13 687 -21
936 -24 1703 -44 2063 -55 594 -18 689 16 746 267 20 89 20 129 1 184 -23 63
-56 101 -117 132 -96 48 -162 56 -663 77 -885 36 -1210 50 -1615 65 -223 9
-415 20 -428 26 -13 5 -50 9 -82 9 -35 0 -60 4 -60 10 0 7 -13 8 -34 5 -20 -4
-36 -2 -40 4 -4 6 -22 11 -41 11 -19 0 -37 5 -40 10 -4 6 -15 8 -25 5 -10 -3
-28 -1 -39 5 -12 5 -30 15 -41 20 -12 6 -25 8 -30 5 -5 -3 -11 -1 -14 4 -4 5
-24 12 -46 16 -22 4 -40 11 -40 15 0 5 -17 14 -37 21 -21 6 -76 32 -123 57
-281 150 -441 299 -564 523 -166 302 -210 739 -115 1139 88 371 275 623 607
819 57 34 108 61 114 61 5 0 24 6 41 14 53 23 91 36 119 41 14 3 55 14 91 25
35 11 77 21 93 22 16 1 33 4 39 7 12 6 17 7 120 16 44 4 81 8 83 10 12 11 363
0 527 -16z"/>
</g>
</svg>
